<?xml version="1.0" standalone="no"?>
<!DOCTYPE svg PUBLIC "-//W3C//DTD SVG 20010904//EN"
 "http://www.w3.org/TR/2001/REC-SVG-20010904/DTD/svg10.dtd">
<svg version="1.0" xmlns="http://www.w3.org/2000/svg"
 width="830.000000pt" height="1112.000000pt" viewBox="0 0 830.000000 1112.000000"
 preserveAspectRatio="xMidYMid meet">

<g transform="translate(0.000000,1112.000000) scale(0.100000,-0.100000)"
fill="#000000" stroke="none">
<path d="M3920 11086 c-23 -61 -72 -290 -105 -486 -19 -118 -47 -277 -61 -352
l-26 -137 -62 -24 c-87 -34 -223 -68 -511 -127 -351 -72 -531 -124 -819 -240
-366 -146 -638 -289 -968 -509 -611 -406 -1120 -874 -1322 -1214 l-36 -62 28
-9 c54 -16 227 20 502 103 446 134 815 281 1260 502 601 298 1045 599 1690
1147 107 91 167 136 172 128 4 -7 12 -52 19 -101 15 -113 7 -279 -25 -530 -13
-104 -27 -223 -31 -262 l-7 -73 -146 -83 c-257 -147 -476 -264 -915 -488 -485
-248 -584 -303 -782 -434 -318 -211 -647 -504 -1211 -1080 -198 -201 -330
-343 -325 -348 13 -13 233 8 356 33 502 103 1241 432 1672 746 236 172 448
368 672 624 71 80 207 235 304 345 96 110 211 238 254 284 l79 85 -4 -205 c-6
-294 21 -743 53 -869 6 -24 -6 -34 -192 -157 -109 -72 -286 -186 -393 -253
-652 -410 -927 -626 -1365 -1071 -455 -462 -777 -865 -967 -1209 -34 -61 -97
-205 -113 -259 l-7 -24 88 7 c548 42 1210 441 1790 1077 314 345 493 572 906
1147 l217 303 10 -38 c21 -78 41 -246 61 -518 28 -374 50 -529 99 -685 12 -36
21 -70 21 -76 0 -6 -87 -70 -192 -141 -106 -72 -284 -191 -396 -266 -111 -76
-244 -167 -295 -204 -550 -397 -1062 -993 -1487 -1733 -203 -352 -305 -580
-325 -724 l-7 -49 40 6 c405 65 1100 525 1703 1128 300 300 444 496 723 978
81 139 178 301 215 358 l68 105 33 -78 c81 -195 116 -335 107 -433 -9 -95 -56
-182 -181 -336 -58 -71 -151 -185 -205 -252 -494 -610 -1015 -1734 -1160
-2503 -37 -199 -52 -462 -28 -487 4 -3 50 31 104 77 506 425 802 779 1024
1220 92 184 150 329 275 680 150 422 194 542 203 558 5 8 42 -124 95 -335 233
-922 377 -1357 595 -1793 223 -447 477 -804 820 -1153 138 -141 307 -297 321
-297 15 0 12 155 -6 310 -42 364 -166 868 -350 1420 -201 603 -403 1017 -914
1875 -108 182 -222 375 -253 430 -70 126 -152 294 -145 301 6 5 300 -298 796
-818 605 -635 908 -878 1502 -1210 282 -157 994 -507 1007 -494 3 3 -2 33 -11
67 -89 315 -420 773 -921 1274 -376 376 -722 651 -1120 891 -239 143 -440 233
-1081 484 l-212 82 -26 112 c-66 281 -87 570 -46 636 8 12 20 5 67 -41 426
-412 1009 -766 1638 -994 529 -191 1298 -319 1718 -286 78 6 166 17 196 24
l53 12 -123 120 c-493 479 -1170 903 -1905 1191 -454 178 -685 238 -1109 289
-200 24 -441 61 -553 85 -61 14 -51 -30 -89 375 -23 243 -28 351 -28 572 0
198 3 275 12 284 16 16 134 -52 345 -199 465 -325 615 -411 947 -541 405 -159
852 -279 1281 -345 256 -39 387 -49 625 -49 233 0 366 14 518 55 75 20 77 21
61 39 -48 53 -331 250 -507 353 -138 81 -473 243 -656 316 -554 222 -1155 379
-2206 576 -225 42 -414 81 -420 86 -6 6 -10 171 -10 456 0 246 -4 465 -9 486
l-9 39 32 -6 c99 -20 238 -96 436 -239 510 -367 843 -539 1400 -724 599 -198
1403 -324 1882 -294 124 8 278 31 290 44 9 9 -188 178 -356 305 -772 583
-1860 1063 -2766 1220 -66 11 -212 34 -325 51 -361 53 -580 103 -580 133 0 7
5 30 11 51 6 22 24 103 41 180 26 128 30 168 38 426 9 295 16 345 61 451 12
27 23 49 25 49 2 0 46 -35 96 -78 539 -452 1139 -788 1828 -1023 709 -243
1239 -323 2007 -304 l283 7 -32 42 c-57 74 -261 271 -366 354 -699 554 -2015
1078 -3191 1272 -156 25 -415 55 -541 62 l-45 3 1 145 c1 98 12 224 33 389 18
134 29 247 24 251 -8 7 -213 60 -233 60 -6 0 -15 -11 -20 -24z"/>
</g>
</svg>
